<svg width="42" height="42" viewBox="0 0 42 42" fill="none" xmlns="http://www.w3.org/2000/svg">
<path d="M42 21C42 9.40202 32.598 0 21 0C9.40202 0 0 9.40202 0 21C0 32.598 9.40202 42 21 42C32.598 42 42 32.598 42 21Z" fill="#F48FB1"/>
<path d="M14.235 25.846H11.782L9.11997 22.172L8.44897 22.876V25.846H6.52397V16.991H8.44897V20.379L11.419 16.991H14.092L10.462 20.764L14.235 25.846ZM17.1179 22.546V25.846H15.1929V16.991H20.9129V18.795H17.1179V20.742H20.6489V22.546H17.1179ZM28.3494 18.476L24.2904 24.042H28.5364V25.846H21.6724V24.361L25.7314 18.795H21.8044V16.991H28.3494V18.476ZM37.0138 25.802L35.5398 27.045L34.4288 25.747C33.9595 25.9157 33.4498 26 32.8998 26C32.0712 26 31.3488 25.813 30.7328 25.439C30.1242 25.065 29.6548 24.537 29.3248 23.855C28.9948 23.1657 28.8298 22.3553 28.8298 21.424C28.8298 20.4927 28.9948 19.6823 29.3248 18.993C29.6548 18.3037 30.1242 17.772 30.7328 17.398C31.3488 17.024 32.0712 16.837 32.8998 16.837C33.7285 16.837 34.4472 17.024 35.0558 17.398C35.6645 17.772 36.1338 18.3037 36.4638 18.993C36.7938 19.6823 36.9588 20.4927 36.9588 21.424C36.9588 22.0767 36.8745 22.6743 36.7058 23.217C36.5372 23.7597 36.2952 24.229 35.9798 24.625L37.0138 25.802ZM30.7988 21.424C30.7988 22.2747 30.9858 22.9493 31.3598 23.448C31.7412 23.9467 32.2545 24.196 32.8998 24.196C33.5452 24.196 34.0548 23.9467 34.4288 23.448C34.8028 22.9493 34.9898 22.2747 34.9898 21.424C34.9898 20.5733 34.8028 19.8987 34.4288 19.4C34.0548 18.894 33.5452 18.641 32.8998 18.641C32.2545 18.641 31.7412 18.894 31.3598 19.4C30.9858 19.8987 30.7988 20.5733 30.7988 21.424Z" fill="white"/>
</svg>
